<?xml version="1.0" standalone="no"?>
<!DOCTYPE svg PUBLIC "-//W3C//DTD SVG 20010904//EN"
 "http://www.w3.org/TR/2001/REC-SVG-20010904/DTD/svg10.dtd">
<svg version="1.0" xmlns="http://www.w3.org/2000/svg"
 width="900.000000pt" height="900.000000pt" viewBox="0 0 900.000000 900.000000"
 preserveAspectRatio="xMidYMid meet">

<g transform="translate(0.000000,900.000000) scale(0.100000,-0.100000)"
fill="#000000" stroke="none">
<path d="M4108 8990 c-9 -6 -72 -15 -140 -20 -222 -17 -542 -85 -808 -172
-360 -117 -616 -228 -905 -395 -285 -164 -468 -296 -751 -544 -186 -163 -221
-197 -341 -339 -40 -47 -101 -118 -136 -158 -75 -85 -248 -326 -332 -462 -32
-52 -66 -107 -76 -122 -28 -41 -245 -480 -274 -553 -59 -152 -75 -197 -120
-329 -25 -76 -44 -141 -41 -144 4 -3 0 -15 -8 -26 -13 -21 -26 -80 -27 -126
-1 -13 -7 -29 -14 -35 -12 -9 -22 -56 -30 -130 -1 -16 -7 -42 -13 -57 -6 -15
-16 -67 -22 -115 -6 -48 -15 -92 -20 -99 -6 -6 -13 -97 -17 -203 -5 -147 -9
-194 -20 -198 -19 -7 -19 -505 0 -521 9 -8 14 -42 15 -104 2 -87 20 -276 27
-289 2 -3 7 -30 10 -60 6 -56 47 -271 66 -349 17 -69 106 -350 156 -495 205
-588 594 -1190 1074 -1660 389 -381 842 -687 1324 -893 545 -234 1020 -347
1488 -355 88 -2 98 -3 93 -19 -4 -17 11 -18 229 -18 216 0 233 1 231 18 -1 15
8 17 74 14 167 -8 574 50 840 119 478 125 1012 368 1400 639 131 91 292 212
346 259 23 20 84 72 135 116 232 200 452 453 715 822 24 35 44 65 44 67 0 3
17 31 38 63 83 131 189 320 236 423 21 47 54 119 73 159 31 67 54 127 139 361
22 61 49 155 94 325 30 111 59 254 69 331 5 39 14 80 19 91 6 11 11 35 11 54
0 27 8 215 10 252 1 4 5 7 10 7 6 0 12 -17 14 -37 2 -21 4 167 4 417 0 250 -2
440 -4 423 -7 -54 -21 -38 -27 30 -3 34 -10 112 -16 172 -6 61 -13 128 -15
150 -9 107 -94 449 -154 628 -89 263 -143 391 -251 602 -59 116 -119 230 -134
255 -15 25 -39 67 -54 93 -99 175 -254 388 -457 627 -77 91 -383 388 -494 480
-189 156 -295 232 -527 377 -194 122 -611 325 -794 387 -41 14 -109 37 -150
51 -316 110 -806 210 -958 197 -22 -2 -34 2 -38 13 -5 13 -54 15 -403 15 -242
0 -403 -4 -413 -10z m792 -179 c324 -31 631 -97 965 -207 381 -126 724 -295
1060 -523 140 -95 160 -111 346 -263 206 -170 400 -364 557 -557 30 -36 61
-75 70 -86 198 -239 424 -615 572 -950 126 -287 244 -681 285 -958 8 -54 19
-106 24 -116 5 -9 10 -43 10 -74 0 -31 3 -61 6 -67 23 -38 46 -747 24 -760 -6
-4 -12 -53 -14 -116 -3 -109 -15 -211 -35 -314 -6 -30 -13 -80 -16 -110 -3
-30 -9 -64 -14 -75 -4 -11 -13 -47 -20 -80 -7 -33 -16 -69 -20 -80 -5 -11 -16
-49 -24 -85 -36 -154 -55 -219 -85 -289 -17 -40 -31 -77 -31 -82 0 -24 -106
-271 -178 -416 -141 -284 -342 -601 -496 -784 -17 -20 -62 -74 -101 -120 -98
-117 -325 -348 -420 -427 -44 -37 -82 -69 -85 -72 -18 -21 -182 -148 -265
-206 -293 -204 -499 -322 -740 -428 -72 -32 -143 -63 -160 -71 -52 -24 -483
-164 -553 -180 -82 -19 -291 -61 -352 -70 -25 -4 -72 -11 -105 -16 -308 -48
-879 -52 -1165 -8 -87 13 -335 59 -385 71 -22 5 -53 12 -70 14 -16 3 -39 9
-50 13 -11 5 -45 14 -75 21 -102 23 -364 112 -492 166 -209 88 -531 253 -633
324 -16 11 -82 55 -145 97 -158 105 -309 220 -424 324 -82 73 -430 429 -480
489 -75 92 -215 286 -324 450 -109 164 -294 522 -375 725 -113 282 -221 681
-258 955 -21 152 -51 545 -49 630 2 42 20 397 25 474 3 48 10 96 15 106 6 10
10 41 10 68 0 27 3 52 7 56 4 3 8 30 10 58 2 29 7 56 13 62 5 5 10 26 10 46 0
19 9 69 21 110 11 41 25 93 30 115 11 42 34 120 73 245 21 67 38 115 108 300
28 74 179 386 212 438 15 23 42 72 62 108 60 112 196 313 292 434 256 321 359
430 667 703 121 108 522 381 714 487 356 196 780 346 1232 439 86 17 291 45
519 70 104 11 557 6 700 -8z"/>
<path d="M4686 8538 c-2 -7 -7 -38 -11 -68 -3 -30 -10 -82 -15 -115 -5 -33
-16 -121 -24 -195 -9 -74 -17 -144 -18 -155 -3 -18 3 -20 52 -20 l55 0 3 45
c1 25 10 73 19 108 16 62 16 62 52 62 59 0 105 -18 138 -52 30 -32 113 -183
113 -206 0 -7 3 -13 8 -13 4 -1 21 -3 37 -5 33 -4 65 -11 89 -20 9 -3 16 -1
16 5 0 12 -47 96 -114 206 -20 32 -35 63 -33 68 1 5 20 15 41 22 21 8 54 28
72 46 40 39 44 75 15 141 -34 78 -61 91 -241 118 -93 14 -186 29 -223 36 -18
4 -28 1 -31 -8z m224 -109 c119 -18 140 -27 155 -62 11 -26 11 -36 0 -58 -24
-45 -35 -49 -110 -38 -39 5 -89 10 -113 11 -62 1 -87 24 -78 72 7 39 45 86 68
86 7 0 42 -5 78 -11z"/>
<path d="M4172 8524 c-22 -10 -32 -33 -144 -339 -16 -44 -39 -108 -50 -142
-11 -35 -25 -63 -31 -63 -7 0 -39 21 -72 46 -33 25 -99 72 -147 105 -49 33
-88 67 -88 75 0 9 26 46 58 82 32 37 70 83 84 102 14 19 36 46 48 60 l22 25
-23 4 c-13 1 -46 -3 -74 -9 -49 -12 -52 -16 -145 -142 -136 -186 -127 -177
-144 -155 -7 10 -19 51 -25 91 -11 79 -26 126 -38 126 -13 0 -82 -26 -89 -32
-10 -10 102 -497 121 -528 9 -14 58 -12 80 3 17 13 17 20 5 110 -12 90 -11 98
7 129 23 40 57 47 86 20 51 -47 223 -172 237 -172 8 0 55 6 104 14 94 14 111
25 122 76 3 14 11 43 17 65 l12 40 105 3 c79 2 109 7 122 19 22 20 24 19 73
-75 l40 -77 54 -3 c70 -4 80 6 47 54 -14 21 -26 42 -26 47 0 5 -13 27 -28 50
-16 23 -46 74 -67 112 -45 83 -144 245 -159 262 -13 13 -75 25 -94 17z m101
-212 c20 -42 37 -83 37 -89 0 -8 -14 -13 -32 -14 -18 0 -51 -1 -73 -2 -51 -2
-54 11 -24 109 16 52 27 74 38 73 10 0 31 -31 54 -77z"/>
<path d="M5336 8458 c-3 -7 -9 -28 -15 -47 -6 -19 -7 -39 -3 -43 5 -5 48 -16
96 -25 l88 -17 -6 -31 c-12 -69 -36 -166 -66 -265 -18 -58 -34 -116 -37 -130
-6 -32 19 -56 68 -65 40 -7 34 -15 58 85 32 134 85 319 96 336 l14 22 78 -19
c112 -26 118 -26 131 18 6 20 10 38 8 40 -1 2 -34 11 -72 21 -266 71 -382 105
-401 117 -27 18 -33 19 -37 3z"/>
<path d="M5969 8107 c-64 -56 -152 -131 -194 -167 -43 -36 -91 -77 -108 -91
-38 -32 -32 -51 22 -69 l41 -13 48 45 c27 25 57 48 68 52 13 4 56 -10 120 -38
l99 -45 9 -95 9 -96 55 -20 c30 -11 56 -19 57 -18 7 8 13 318 5 323 -4 3 -11
70 -15 150 -7 141 -8 145 -31 151 -13 3 -28 12 -35 20 -6 8 -17 14 -23 14 -6
-1 -63 -47 -127 -103z m125 -82 c8 -52 -1 -110 -20 -125 -10 -9 -27 -8 -66 4
-62 18 -82 30 -77 44 4 11 141 122 150 122 4 0 10 -20 13 -45z"/>
<path d="M2850 8182 l-35 -17 0 -302 c0 -166 4 -305 8 -309 4 -4 28 6 54 23
l48 29 -3 82 -4 81 34 21 c18 11 50 25 71 31 21 5 53 19 70 30 18 10 40 19 50
19 9 0 46 -22 81 -50 35 -27 70 -50 77 -49 19 1 72 33 70 42 0 4 -1 11 -1 16
0 8 -116 108 -181 156 -14 11 -68 56 -119 100 -145 126 -155 130 -220 97z
m153 -167 c39 -30 69 -78 56 -89 -17 -13 -123 -55 -130 -50 -10 6 -12 117 -3
152 9 30 23 28 77 -13z"/>
<path d="M2433 7968 c-38 -23 -39 -27 -14 -59 10 -13 32 -47 49 -74 16 -28 59
-99 96 -159 36 -60 66 -116 66 -126 0 -19 -26 -52 -54 -67 -23 -13 -70 -1 -97
23 -17 15 -21 16 -36 2 -10 -9 -28 -19 -40 -22 -31 -10 -29 -16 15 -58 43 -42
72 -58 102 -58 29 0 152 65 180 95 28 30 39 86 27 140 -9 44 -232 386 -251
384 -6 0 -26 -10 -43 -21z"/>
<path d="M6730 7861 c0 -10 -114 -163 -220 -297 -31 -39 -67 -88 -80 -109 -23
-37 -23 -39 -5 -49 10 -6 30 -21 43 -34 13 -13 25 -22 26 -20 1 2 10 20 21 40
26 50 93 128 110 128 8 0 47 -26 87 -58 107 -84 133 -102 165 -108 27 -5 125
17 148 34 6 4 23 35 39 70 l30 62 -29 60 c-27 56 -75 107 -145 152 -14 9 -58
43 -97 77 -70 59 -93 72 -93 52z m114 -183 c74 -59 125 -119 126 -146 0 -30
-46 -72 -78 -72 -30 0 -134 65 -180 113 l-33 34 22 29 c35 46 72 84 82 84 5 0
32 -19 61 -42z"/>
<path d="M4115 7807 c-38 -4 -130 -20 -204 -34 -569 -109 -993 -291 -1426
-613 -304 -226 -570 -507 -768 -811 -181 -280 -299 -518 -377 -759 -105 -329
-147 -508 -154 -660 -2 -30 -8 -77 -14 -105 -5 -27 -11 -108 -12 -178 -1 -139
-4 -157 -28 -157 -12 0 -11 -4 6 -20 19 -18 22 -31 22 -103 1 -218 45 -535
103 -732 8 -27 24 -86 37 -130 47 -171 134 -380 248 -595 72 -138 258 -419
360 -545 105 -130 400 -416 537 -521 174 -134 461 -304 655 -389 58 -25 119
-52 135 -60 58 -26 110 -47 150 -60 145 -47 246 -76 257 -73 7 1 22 -3 33 -9
19 -10 72 -22 125 -29 14 -2 54 -10 90 -19 36 -9 85 -18 110 -21 25 -2 81 -9
125 -14 281 -34 366 -34 735 1 184 17 517 91 711 158 341 117 738 336 1030
569 137 109 372 346 483 486 90 114 217 295 284 406 74 122 232 465 285 620
35 101 103 368 112 440 4 30 13 81 21 112 8 31 19 148 24 259 6 112 15 220 21
240 10 30 9 41 -4 60 -12 16 -14 35 -10 64 3 23 0 113 -6 201 -24 329 -98 635
-238 983 -67 167 -181 389 -271 526 -71 107 -218 303 -243 323 -16 13 -36 38
-45 57 -16 35 -274 293 -335 335 -19 13 -38 30 -42 37 -10 15 -107 91 -145
113 -15 9 -38 27 -52 41 -37 37 -376 238 -510 302 -316 151 -770 278 -1080
302 -125 10 -654 11 -735 2z m724 -175 c205 -21 430 -72 671 -153 159 -53 233
-84 400 -171 367 -190 533 -313 826 -610 216 -220 307 -334 466 -588 47 -76
193 -377 234 -482 142 -371 216 -768 214 -1153 -2 -246 -31 -502 -81 -715 -55
-232 -199 -603 -304 -785 -109 -187 -165 -279 -183 -299 -11 -12 -36 -46 -56
-76 -69 -105 -304 -355 -457 -487 -156 -134 -174 -149 -229 -187 -30 -20 -69
-47 -86 -59 -92 -64 -254 -160 -362 -212 -161 -79 -436 -188 -520 -206 -62
-13 -105 -24 -172 -42 -30 -9 -66 -15 -80 -15 -14 0 -43 -5 -65 -10 -81 -21
-183 -35 -210 -28 -19 5 -33 2 -45 -9 -17 -15 -50 -16 -317 -11 -353 6 -517
23 -693 71 -30 8 -100 26 -155 39 -55 14 -131 36 -170 50 -82 29 -332 134
-396 166 -140 71 -434 262 -532 344 -287 243 -393 353 -587 610 -136 180 -276
416 -335 565 -15 36 -30 71 -34 76 -5 6 -21 44 -36 85 -15 41 -33 89 -41 105
-21 49 -93 314 -109 400 -9 44 -20 103 -25 130 -6 28 -13 86 -16 130 -3 44
-10 89 -15 100 -6 12 -8 129 -6 290 3 265 12 355 52 580 9 50 18 102 20 117 2
15 8 42 14 60 6 18 29 92 51 163 63 200 86 257 177 439 194 390 335 586 635
882 190 188 337 307 528 427 412 260 841 409 1355 471 130 16 505 15 674 -2z"/>
<path d="M6457 6552 c-9 -2 -15 -8 -12 -12 10 -16 -22 -63 -87 -130 -35 -36
-72 -76 -83 -89 -20 -23 -20 -41 -25 -1849 l-5 -1827 -39 -18 c-21 -10 -36
-20 -33 -23 8 -8 52 13 72 36 20 22 20 37 21 1809 1 982 2 1798 3 1812 1 18
25 53 72 105 69 76 146 181 138 187 -2 2 -12 2 -22 -1z"/>
<path d="M3618 6543 c452 -2 1192 -2 1645 0 452 1 82 2 -823 2 -905 0 -1275
-1 -822 -2z"/>
<path d="M2583 6403 c36 -43 74 -94 86 -113 22 -36 30 -21 8 16 -18 32 -143
174 -153 174 -3 0 24 -35 59 -77z"/>
<path d="M3898 6413 c7 -3 16 -2 19 1 4 3 -2 6 -13 5 -11 0 -14 -3 -6 -6z"/>
<path d="M4048 6413 c12 -2 30 -2 40 0 9 3 -1 5 -23 4 -22 0 -30 -2 -17 -4z"/>
<path d="M4298 6413 c23 -2 59 -2 80 0 20 2 1 4 -43 4 -44 0 -61 -2 -37 -4z"/>
<path d="M4588 6413 c12 -2 30 -2 40 0 9 3 -1 5 -23 4 -22 0 -30 -2 -17 -4z"/>
<path d="M4728 6413 c6 -2 18 -2 25 0 6 3 1 5 -13 5 -14 0 -19 -2 -12 -5z"/>
<path d="M3402 6293 c-15 -3 -34 -21 -50 -50 -15 -24 -46 -74 -70 -110 -23
-37 -41 -68 -39 -70 2 -2 18 0 36 3 22 5 33 14 37 30 14 55 54 139 67 142 10
2 19 -10 27 -35 6 -21 16 -48 22 -60 6 -12 9 -34 6 -50 l-4 -29 66 4 c36 3 67
6 69 8 3 2 -5 14 -17 27 -11 12 -41 60 -66 107 -47 89 -48 90 -84 83z"/>
<path d="M4048 6290 c-9 -6 -34 -38 -54 -73 -21 -34 -53 -83 -72 -109 l-34
-48 29 0 c40 0 45 6 77 88 16 40 34 76 40 82 18 14 35 -2 42 -40 5 -24 4 -31
-4 -26 -7 4 -12 2 -12 -3 0 -6 7 -11 15 -11 16 0 35 -30 35 -54 0 -9 -7 -16
-15 -16 -8 0 -15 -5 -15 -11 0 -8 18 -10 61 -5 34 3 70 6 81 6 15 0 12 8 -19
48 -21 27 -54 78 -73 115 -35 66 -49 76 -82 57z"/>
<path d="M3070 6286 c0 -2 7 -17 15 -32 20 -39 20 -147 0 -164 -20 -16 -43 -6
-57 25 -9 20 -18 25 -50 25 -34 0 -38 -3 -38 -25 0 -30 24 -42 90 -46 63 -3
103 0 119 10 8 5 21 51 30 110 l17 101 -63 0 c-35 0 -63 -2 -63 -4z"/>
<path d="M3596 6269 c10 -12 39 -41 64 -65 44 -41 44 -43 32 -76 -22 -61 -19
-65 46 -60 65 5 70 8 54 24 -29 29 -6 83 71 166 l31 32 -32 0 c-26 0 -34 -5
-42 -27 -17 -45 -32 -72 -45 -76 -6 -3 -29 19 -50 49 -39 54 -39 54 -94 54
l-54 0 19 -21z"/>
<path d="M4678 6284 c-3 -3 -3 -42 -1 -88 4 -51 1 -90 -6 -103 -10 -20 -8 -21
52 -25 34 -2 63 -3 65 -2 2 1 -3 15 -11 31 -16 31 -20 125 -6 160 12 32 66 32
78 1 12 -32 1 -70 -22 -76 -20 -5 -20 -5 1 -13 16 -6 22 -17 22 -41 0 -18 4
-38 8 -45 8 -12 112 -30 112 -20 0 10 -50 81 -72 101 l-21 19 22 18 c12 10 26
19 33 21 7 3 9 14 5 30 -6 22 -14 26 -59 32 -65 7 -193 8 -200 0z"/>
<path d="M5122 6278 c-6 -6 -12 -15 -12 -19 0 -17 -92 -167 -105 -173 -28 -10
-15 -26 20 -26 25 0 37 5 41 18 19 61 57 153 66 158 15 10 38 -25 38 -57 0
-14 7 -33 16 -40 11 -9 14 -23 10 -47 -5 -31 -3 -34 17 -28 12 3 44 6 71 6
l49 0 -23 25 c-13 14 -42 62 -65 108 -38 77 -42 82 -75 85 -19 2 -41 -3 -48
-10z"/>
<path d="M5340 6282 c0 -4 16 -24 36 -43 69 -66 82 -101 59 -161 -4 -10 9 -12
61 -10 61 4 65 5 50 21 -9 10 -16 28 -16 40 0 26 62 116 91 132 26 14 24 29
-5 29 -18 0 -31 -11 -49 -43 -47 -80 -62 -80 -95 -4 l-21 47 -55 0 c-31 0 -56
-4 -56 -8z"/>
<path d="M5777 6283 c-5 -4 -16 -26 -26 -49 -10 -23 -37 -70 -60 -105 -44 -67
-41 -79 15 -65 19 5 24 13 24 40 0 18 7 39 15 46 9 7 15 29 15 51 0 79 52 25
108 -113 2 -4 -3 -8 -12 -8 -9 0 -16 -5 -16 -10 0 -9 127 -4 138 5 2 2 -7 15
-20 30 -12 14 -41 61 -63 103 -37 72 -42 77 -75 80 -20 2 -39 0 -43 -5z"/>
<path d="M4425 6038 c-25 -26 -118 -85 -170 -109 -22 -11 -29 -16 -15 -13 44
11 83 33 153 86 l69 51 36 -19 c56 -28 60 -28 20 0 -44 31 -66 32 -93 4z"/>
<path d="M2692 5985 c0 -16 2 -22 5 -12 2 9 2 23 0 30 -3 6 -5 -1 -5 -18z"/>
<path d="M2864 5700 c0 -173 2 -244 3 -157 2 86 2 228 0 315 -1 86 -3 15 -3
-158z"/>
<path d="M4580 5986 c0 -3 9 -10 20 -16 11 -6 20 -8 20 -6 0 3 -9 10 -20 16
-11 6 -20 8 -20 6z"/>
<path d="M2693 5870 c0 -41 2 -58 4 -37 2 20 2 54 0 75 -2 20 -4 3 -4 -38z"/>
<path d="M4695 5923 c15 -15 74 -33 104 -32 17 0 9 5 -24 14 -27 7 -59 16 -70
20 -13 5 -17 5 -10 -2z"/>
<path d="M4170 5900 c-21 -7 -21 -8 -5 -9 11 0 27 4 35 9 18 11 5 11 -30 0z"/>
<path d="M4398 5850 c-70 -52 -158 -100 -218 -118 -19 -6 -94 -16 -167 -21
-171 -12 -191 -23 -248 -126 -20 -36 -31 -76 -39 -140 l-12 -90 -167 4 -167 3
0 -107 0 -106 -260 3 -259 3 -3 -25 c-2 -14 -2 -557 0 -1206 l2 -1182 28 -10
c15 -5 277 -92 582 -192 305 -100 607 -200 670 -222 201 -71 287 -97 319 -100
19 -1 335 99 826 262 l795 265 -3 1203 -2 1203 -257 -1 -258 -1 0 106 0 105
-170 0 c-93 0 -170 3 -171 8 0 4 -2 39 -3 77 -4 81 -28 143 -78 196 -48 53
-65 59 -201 70 -185 14 -233 32 -412 152 -30 20 -56 37 -58 37 -1 0 -32 -23
-69 -50z m190 -407 c2 -15 11 -36 20 -46 12 -14 13 -25 6 -55 -8 -34 -12 -37
-46 -40 l-38 -3 0 -52 c0 -59 12 -313 41 -843 10 -198 19 -404 19 -457 l0 -97
159 0 c177 0 177 0 162 -72 -7 -33 -7 -33 -80 -42 -73 -10 -75 -11 -135 -70
-55 -55 -89 -103 -94 -131 -1 -6 28 -10 71 -10 l72 0 3 -48 3 -48 140 7 139 7
0 -45 c0 -42 -2 -46 -27 -51 -16 -4 -266 -6 -556 -5 -404 0 -530 3 -533 13 -3
6 -6 27 -7 46 l-2 34 137 0 c75 1 141 4 145 8 4 5 2 17 -5 28 -20 32 0 46 74
52 36 2 67 7 70 10 12 12 -63 129 -96 150 -39 23 -51 37 -44 49 3 4 -30 8 -73
8 -43 0 -83 4 -89 8 -17 11 -24 51 -14 78 10 24 10 24 177 24 l168 0 2 103 c1
56 9 246 17 422 9 176 20 412 26 525 5 113 12 249 16 303 l6 97 -35 0 c-50 0
-64 21 -48 73 7 23 12 53 12 66 -1 12 1 26 3 30 2 3 55 5 118 4 l113 -2 3 -28z
m530 -179 c25 -17 31 -64 8 -64 -14 0 -50 -38 -71 -75 -10 -16 -14 -17 -40 -4
-18 9 -31 23 -33 37 -5 30 35 88 73 107 37 18 36 18 63 -1z m-1503 -130 c-10
-26 -34 -64 -53 -86 -19 -21 -33 -41 -30 -43 9 -9 67 41 94 82 37 55 130 121
147 104 9 -9 6 -22 -13 -57 -27 -53 -73 -91 -118 -100 -17 -4 -37 -13 -43 -21
-10 -12 -5 -13 32 -7 24 4 54 11 67 15 39 15 43 10 27 -28 -23 -56 -44 -71
-110 -82 -81 -13 -128 7 -135 59 -5 37 -13 33 -24 -13 -4 -19 -2 -33 9 -43 8
-9 15 -27 15 -41 0 -20 4 -24 18 -18 20 9 131 34 150 35 28 0 2 -37 -60 -87
-27 -21 -92 -50 -128 -58 -52 -11 -100 -35 -100 -51 0 -18 4 -17 39 0 33 18
151 46 151 37 0 -4 -13 -23 -29 -42 -35 -42 -147 -99 -195 -99 -25 0 -38 -7
-51 -27 -17 -25 -17 -26 1 -19 28 11 157 45 172 46 25 0 11 -35 -31 -74 -27
-26 -67 -49 -108 -64 -86 -31 -93 -36 -97 -61 -3 -20 -1 -20 45 9 26 17 63 34
81 39 31 9 32 8 32 -18 0 -42 -59 -112 -121 -145 -30 -16 -61 -35 -69 -41 -8
-7 -23 -15 -32 -16 -15 -4 -15 -6 -2 -23 14 -19 15 -19 52 15 53 51 92 79 110
79 11 0 13 -8 8 -41 -11 -71 -37 -111 -101 -154 -57 -39 -97 -87 -84 -100 4
-3 38 26 77 65 38 38 75 70 81 70 15 0 14 -74 -3 -113 -7 -18 -43 -60 -79 -93
-53 -50 -67 -69 -71 -100 l-6 -39 16 34 c19 43 140 165 154 156 13 -8 13 -54
-1 -93 -9 -26 -118 -132 -147 -144 -5 -1 -12 -14 -16 -28 l-7 -25 19 22 c27
31 145 133 154 133 5 0 8 -18 8 -40 0 -37 -6 -47 -69 -109 -74 -73 -108 -121
-74 -102 11 5 34 28 53 51 18 23 51 55 72 71 l38 31 0 -45 c0 -38 -7 -52 -51
-107 -28 -35 -54 -73 -59 -84 -33 -90 -16 -87 29 4 75 151 107 157 99 21 -5
-73 -4 -81 6 -53 11 32 12 33 28 15 21 -24 42 -137 33 -188 -4 -28 -3 -37 4
-30 6 6 14 46 17 88 7 73 8 76 24 62 19 -17 44 -105 56 -193 6 -47 5 -52 -11
-46 -11 4 -16 3 -14 -3 7 -19 77 -91 100 -103 l22 -12 -24 38 c-22 35 -25 53
-30 189 -4 131 -8 158 -31 213 -14 34 -23 62 -19 62 4 0 26 -19 48 -42 63 -64
73 -97 73 -240 1 -89 6 -137 18 -173 18 -54 33 -62 107 -64 64 -1 68 7 35 73
-28 54 -38 96 -24 96 31 0 104 -105 104 -149 0 -19 6 -21 48 -20 38 0 43 2 27
10 -11 6 -39 47 -63 92 -42 81 -50 107 -34 107 11 0 72 -75 72 -88 0 -5 9 -17
20 -27 11 -10 24 -32 28 -49 11 -40 28 -44 192 -44 98 0 128 2 109 9 -19 7
-34 27 -53 70 -14 33 -26 70 -26 83 0 22 38 65 75 84 52 26 129 -28 160 -113
10 -27 23 -56 28 -62 10 -14 31 -18 24 -5 -3 4 9 36 27 72 36 75 79 110 135
110 87 -1 121 -88 73 -185 -26 -54 -103 -108 -140 -98 -29 7 -28 -8 2 -27 13
-8 56 -42 95 -75 68 -57 91 -91 76 -114 -15 -25 -45 -7 -125 74 -47 47 -88 85
-92 85 -5 0 3 -22 17 -50 28 -55 34 -130 11 -130 -22 0 -45 45 -54 102 -6 48
-10 53 -34 56 -24 3 -27 -1 -37 -48 -6 -28 -11 -57 -11 -64 0 -18 -37 -49 -49
-41 -16 9 -14 35 9 100 11 32 18 61 15 64 -3 3 -38 -29 -78 -71 -75 -78 -113
-101 -128 -77 -5 8 -9 18 -9 23 0 11 137 142 173 163 37 23 34 34 -5 22 -18
-6 -107 -13 -198 -16 -91 -2 -171 -6 -177 -8 -7 -3 -13 -16 -13 -31 0 -20 -16
-42 -61 -86 -33 -32 -65 -58 -70 -58 -5 0 -27 -11 -49 -25 -22 -14 -52 -25
-67 -25 -27 0 -26 3 27 47 72 62 146 136 160 162 10 19 8 21 -19 21 -24 0 -36
-9 -65 -50 -68 -95 -189 -165 -298 -173 -40 -3 -45 -1 -36 11 7 8 21 18 33 23
33 14 137 82 192 125 27 21 59 45 69 52 16 10 4 12 -69 10 -87 -3 -87 -3 -122
-41 -64 -69 -107 -82 -285 -82 -113 0 -166 4 -195 15 -39 15 -36 15 120 20
133 4 151 6 110 14 -50 8 -67 14 -161 56 -52 22 -104 63 -104 80 0 5 15 1 33
-10 53 -31 153 -60 207 -60 28 0 94 9 146 21 53 11 107 18 120 15 35 -9 30 10
-6 23 -16 5 -30 14 -30 19 0 17 -38 20 -77 6 -54 -19 -98 -17 -143 6 -67 34
-50 53 47 53 34 0 63 3 63 8 0 16 -71 21 -135 8 -54 -10 -72 -10 -103 0 -52
18 -82 39 -82 56 0 12 17 15 88 15 60 0 94 4 108 14 10 8 16 18 11 22 -4 4
-13 2 -19 -4 -20 -20 -133 -15 -176 7 -46 24 -82 57 -82 76 0 17 2 17 53 6 20
-5 37 -7 37 -5 0 2 -19 16 -42 30 -23 15 -50 36 -60 48 -17 20 -41 86 -34 93
2 2 43 -19 91 -47 48 -27 92 -50 97 -50 24 0 -4 26 -72 68 -109 66 -138 102
-154 195 -8 44 1 47 35 11 13 -14 45 -40 72 -57 26 -16 47 -34 47 -39 0 -4 5
-8 10 -8 31 0 -2 45 -52 70 -38 20 -99 83 -114 119 -8 18 -14 49 -14 68 l0 34
65 -58 c66 -59 85 -68 93 -45 2 6 -2 12 -10 12 -7 0 -42 27 -78 60 l-65 59 -3
76 -4 77 76 -76 c42 -42 78 -76 81 -76 14 0 -2 22 -70 94 l-75 79 0 73 c0 53
4 74 13 74 21 0 34 -14 49 -49 l14 -34 12 27 c7 17 8 25 1 23 -23 -5 -51 50
-56 109 -4 49 -1 68 16 101 11 23 28 46 37 51 11 6 16 29 18 91 2 45 6 84 9
87 11 12 27 -8 27 -34 0 -39 17 -15 31 43 6 28 16 61 21 74 8 23 9 23 23 5 15
-22 14 -26 34 95 6 36 15 69 20 74 13 13 41 -9 41 -31 0 -35 19 7 39 87 28
108 38 126 57 110 8 -6 12 -19 9 -28 -2 -9 -1 -22 4 -30 6 -9 14 2 26 39 17
51 45 90 64 90 6 0 11 -19 13 -42 l3 -43 19 34 c10 19 41 59 69 88 60 64 80
59 52 -13z m1949 -39 c82 -64 86 -84 19 -98 -28 -5 -44 -14 -48 -28 -4 -10
-10 -17 -15 -14 -5 3 -11 -1 -13 -7 -3 -8 -6 -6 -6 5 -1 9 -5 17 -11 17 -5 0
-10 9 -10 20 0 17 5 19 30 15 29 -5 30 -4 18 17 -7 13 -14 24 -15 26 0 2 -10
-2 -21 -9 -48 -30 -71 24 -26 60 35 27 59 26 98 -4z m-374 -145 c0 -11 -5 -22
-11 -25 -5 -4 -9 -21 -7 -38 3 -27 -1 -33 -20 -35 -26 -4 -92 41 -92 62 0 19
23 36 67 51 43 15 63 10 63 -15z m265 -148 c-6 -7 -35 18 -35 31 0 5 9 2 20
-8 11 -10 18 -20 15 -23z m462 -154 c60 -66 58 -104 -9 -156 -29 -22 -56 -38
-60 -36 -14 9 -9 34 7 34 18 0 20 41 3 58 -17 17 -47 15 -54 -3 -11 -28 -24
-15 -17 18 7 37 26 63 68 88 38 24 37 24 62 -3z m-476 -119 l22 -22 -24 -18
c-13 -10 -27 -19 -30 -19 -17 0 -16 -31 2 -51 25 -29 11 -39 -58 -39 l-52 0
-6 55 c-4 30 -5 61 -2 68 3 8 29 21 59 30 69 20 65 20 89 -4z m209 -72 c0 -16
-4 -26 -10 -22 -5 3 -10 23 -10 43 0 28 3 33 10 22 5 -8 10 -28 10 -43z m-120
-7 c0 -6 -9 -5 -20 2 -11 7 -20 16 -20 21 0 4 9 3 20 -3 11 -6 20 -15 20 -20z
m300 10 c0 -5 -2 -10 -4 -10 -3 0 -8 5 -11 10 -3 6 -1 10 4 10 6 0 11 -4 11
-10z m-183 -62 c-3 -8 -6 -5 -6 6 -1 11 2 17 5 13 3 -3 4 -12 1 -19z m13 -51
c0 -5 -4 -5 -10 -2 -5 3 -10 14 -10 23 0 15 2 15 10 2 5 -8 10 -19 10 -23z
m19 -50 c0 -21 -1 -21 -9 -2 -12 28 -12 37 0 30 6 -3 10 -16 9 -28z m-52 -173
c-3 -3 -12 -4 -19 -1 -8 3 -5 6 6 6 11 1 17 -2 13 -5z m18 -25 c11 -17 -1 -21
-15 -4 -8 9 -8 15 -2 15 6 0 14 -5 17 -11z m-68 -70 c23 -38 11 -61 -29 -58
-26 2 -41 -5 -71 -34 -41 -40 -55 -45 -63 -23 -7 19 40 121 65 138 30 21 78
10 98 -23z m109 14 c-7 -7 -26 7 -26 19 0 6 6 6 15 -2 9 -7 13 -15 11 -17z
m298 -70 c46 -48 56 -78 42 -127 -10 -34 -17 -41 -52 -53 -51 -17 -97 -4 -87
24 10 28 26 33 45 16 29 -26 21 -5 -17 47 -41 55 -43 75 -13 107 29 31 40 29
82 -14z m-129 -90 c-8 -46 -34 -103 -46 -103 -12 0 -11 57 1 65 5 3 6 13 3 22
-5 12 -2 15 10 10 12 -4 14 -2 10 10 -4 11 -2 14 5 9 7 -4 12 -1 12 8 0 9 3
16 6 16 3 0 3 -17 -1 -37z m-161 -70 c-3 -38 -8 -75 -11 -83 -3 -8 -7 -33 -9
-55 -5 -50 -21 -67 -30 -31 -6 24 -3 55 11 111 2 11 10 44 16 73 16 73 29 65
23 -15z m-327 -8 c0 -8 -4 -12 -9 -9 -5 3 -6 10 -3 15 9 13 12 11 12 -6z m123
-154 c0 -21 -5 -31 -15 -31 -8 0 -15 3 -16 8 0 4 -2 29 -4 55 l-4 49 19 -25
c11 -14 20 -39 20 -56z m-1360 -106 l0 -65 -37 0 c-21 -1 -68 -3 -105 -6 -61
-5 -67 -4 -78 16 -7 14 -9 40 -5 71 l7 49 109 0 109 0 0 -65z m900 1 c0 -76 4
-73 -130 -66 l-95 5 -3 42 c-6 77 4 83 123 83 l105 0 0 -64z m381 41 c-1 -12
-15 -9 -19 4 -3 6 1 10 8 8 6 -3 11 -8 11 -12z m314 3 c-3 -5 -11 -10 -16 -10
-6 0 -7 5 -4 10 3 6 11 10 16 10 6 0 7 -4 4 -10z m10 -30 c-3 -5 -11 -10 -16
-10 -6 0 -7 5 -4 10 3 6 11 10 16 10 6 0 7 -4 4 -10z m-45 -4 c0 -3 -4 -8 -10
-11 -5 -3 -10 -1 -10 4 0 6 5 11 10 11 6 0 10 -2 10 -4z m-175 -26 c3 -5 1
-10 -4 -10 -6 0 -11 5 -11 10 0 6 2 10 4 10 3 0 8 -4 11 -10z m411 -37 c-3 -3
-22 -2 -42 2 -27 5 -34 9 -24 15 8 5 18 6 22 4 5 -3 16 3 26 12 16 17 17 17
20 -5 2 -12 1 -25 -2 -28z m-347 5 c6 11 9 10 13 -5 6 -21 -13 -43 -36 -43 -9
0 -13 -6 -10 -13 3 -8 -3 -20 -12 -28 -15 -12 -16 -10 -9 30 5 31 4 42 -4 37
-6 -4 -11 -3 -11 3 0 5 5 13 10 16 6 3 10 1 10 -4 0 -6 5 -11 10 -11 6 0 10 8
10 18 0 14 2 15 10 2 8 -12 12 -13 19 -2z m-289 -14 c0 -8 16 -30 35 -47 44
-40 57 -97 30 -127 -21 -24 -40 -25 -77 -6 -24 13 -27 12 -32 -8 -5 -18 -45
-46 -68 -46 -15 0 -8 30 12 50 11 11 17 20 13 21 -5 0 2 4 15 10 17 6 22 15
20 31 -4 28 -33 35 -56 15 -26 -24 -72 -32 -83 -16 -13 21 -11 83 4 102 8 12
35 21 77 26 100 13 110 13 110 -5z m565 6 c13 -6 15 -9 5 -9 -8 0 -22 4 -30 9
-18 12 -2 12 25 0z m-128 -36 c-3 -3 -12 -4 -19 -1 -8 3 -5 6 6 6 11 1 17 -2
13 -5z m77 -4 c-6 -6 -21 -6 -39 -1 -30 9 -30 9 10 10 25 1 36 -2 29 -9z
m-298 -47 c-3 -10 -15 -24 -27 -31 -22 -14 -22 -14 11 35 16 25 25 23 16 -4z
m297 -49 c37 -25 67 -53 67 -60 0 -22 -55 -127 -78 -147 -14 -13 -32 -17 -63
-15 l-44 3 3 90 c3 110 -3 123 -50 105 -18 -7 -41 -22 -51 -33 -20 -22 -31
-19 -21 7 10 25 115 95 144 96 14 0 55 -20 93 -46z m-312 -7 c-10 -9 -11 -8
-5 6 3 10 9 15 12 12 3 -3 0 -11 -7 -18z m-301 -17 c0 -5 -2 -10 -4 -10 -3 0
-8 5 -11 10 -3 6 -1 10 4 10 6 0 11 -4 11 -10z m471 -82 c-3 -18 -11 -42 -17
-52 -10 -17 -14 -18 -43 -5 -17 8 -31 18 -31 24 0 13 40 38 48 31 3 -3 0 -6
-6 -6 -7 0 -12 -9 -12 -20 0 -11 7 -20 16 -20 8 0 13 4 10 9 -3 4 1 16 8 27 8
10 12 24 9 31 -3 7 1 13 9 13 11 0 13 -8 9 -32z m-125 13 c8 7 18 8 22 4 4 -4
1 -10 -7 -13 -11 -4 -11 -6 0 -14 11 -7 9 -8 -4 -4 -10 3 -30 6 -45 6 -25 0
-25 1 -6 14 11 8 21 10 22 5 3 -6 10 -5 18 2z m-366 -35 c0 -11 -19 -15 -25
-6 -3 5 1 10 9 10 9 0 16 -2 16 -4z m181 -19 c-10 -9 -11 -8 -5 6 3 10 9 15
12 12 3 -3 0 -11 -7 -18z m19 -21 c0 -3 -4 -8 -10 -11 -5 -3 -10 -1 -10 4 0 6
5 11 10 11 6 0 10 -2 10 -4z m-1655 -24 c13 -9 45 -67 45 -81 0 -6 -9 -11 -20
-11 -13 0 -25 12 -35 36 -23 54 -18 77 10 56z m1565 -37 c-10 -12 -10 -15 0
-15 24 0 -10 -28 -43 -36 -41 -10 -39 -9 -59 -18 -10 -5 -15 -12 -12 -17 3 -5
-13 -9 -35 -9 -23 0 -41 3 -41 6 0 13 35 33 58 34 13 0 36 7 52 15 16 8 37 12
46 8 14 -5 16 -3 11 10 -4 11 1 25 11 35 20 20 30 9 12 -13z m304 -123 c76
-53 87 -67 57 -77 -20 -6 -62 9 -60 23 4 23 -3 39 -22 51 -18 11 -23 11 -31
-1 -8 -10 -9 -9 -4 4 4 13 -6 23 -37 38 l-42 20 35 -5 c19 -3 66 -27 104 -53z
m-856 17 c-16 -9 -88 -8 -82 2 2 4 24 7 50 6 25 0 39 -4 32 -8z m-614 -294
c48 -36 100 -55 154 -55 62 0 141 24 171 51 l22 21 74 -37 c69 -35 78 -37 139
-33 47 4 86 16 138 41 l73 36 13 -24 c27 -52 115 -77 191 -55 19 5 37 7 40 4
3 -3 -13 -23 -36 -45 -51 -47 -79 -49 -160 -14 l-57 26 -71 -32 c-40 -19 -92
-35 -124 -37 -55 -5 -151 12 -182 31 -14 9 -33 6 -83 -12 -94 -33 -186 -27
-282 18 l-71 33 -39 -21 c-57 -31 -96 -36 -137 -16 -37 18 -84 61 -75 71 3 3
34 -1 68 -8 58 -12 64 -11 105 11 24 12 53 34 66 47 12 13 24 24 26 24 3 0 19
-11 37 -25z m356 -268 c40 0 69 7 107 26 29 15 60 27 68 27 9 0 49 -14 88 -31
62 -27 78 -31 128 -25 32 3 60 2 63 -3 8 -12 -99 -51 -139 -51 -18 0 -52 7
-75 15 -57 20 -86 19 -140 -7 -62 -29 -130 -28 -208 4 l-64 26 -51 -24 c-67
-31 -107 -30 -176 3 l-56 28 95 6 c106 6 125 12 157 46 l23 24 62 -32 c48 -25
76 -32 118 -32z"/>
<path d="M4458 3623 c7 -2 12 -22 12 -44 0 -36 -2 -39 -27 -40 -28 0 -28 0 -5
-10 30 -12 75 -1 68 17 -3 7 -8 29 -12 48 -5 28 -11 36 -28 35 -11 0 -15 -3
-8 -6z"/>
<path d="M3371 4854 c-27 -39 -29 -45 -11 -39 18 6 19 3 15 -27 l-5 -33 14 30
c8 17 13 37 10 46 -2 8 3 24 11 35 17 22 19 34 6 34 -5 0 -23 -21 -40 -46z"/>
<path d="M3272 4741 c-16 -51 -15 -66 3 -81 13 -11 15 -8 15 16 0 16 3 46 6
67 9 49 -9 48 -24 -2z"/>
<path d="M3196 4599 c-11 -50 -11 -64 2 -61 6 1 12 -5 12 -13 0 -8 4 -15 9
-15 10 0 2 91 -10 104 -4 5 -10 -2 -13 -15z"/>
<path d="M3152 4517 c-13 -16 -22 -146 -10 -153 4 -3 8 25 8 61 0 37 5 75 10
86 12 22 8 25 -8 6z"/>
<path d="M3059 4333 c13 -43 33 -83 43 -83 14 0 9 21 -12 47 -11 14 -20 32
-20 39 0 7 -4 15 -9 19 -6 3 -6 -6 -2 -22z"/>
<path d="M3165 4340 c-3 -5 -1 -10 4 -10 6 0 11 5 11 10 0 6 -2 10 -4 10 -3 0
-8 -4 -11 -10z"/>
<path d="M3085 4120 c-3 -5 -2 -10 4 -10 5 0 13 5 16 10 3 6 2 10 -4 10 -5 0
-13 -4 -16 -10z"/>
<path d="M3050 4106 c0 -2 5 -18 11 -36 9 -26 14 -29 20 -17 11 19 3 44 -17
51 -8 3 -14 4 -14 2z"/>
<path d="M3326 3425 c-9 -26 -7 -32 5 -12 6 10 9 21 6 23 -2 3 -7 -2 -11 -11z"/>
<path d="M3296 3381 c-8 -12 3 -41 15 -41 5 0 9 11 9 25 0 25 -14 34 -24 16z"/>
<path d="M3205 3324 c-16 -25 -16 -26 7 -22 15 2 24 11 26 26 4 30 -12 28 -33
-4z"/>
<path d="M3380 3239 c-14 -25 -6 -36 14 -20 12 10 20 10 38 -3 28 -20 44 -21
28 -1 -7 8 -19 15 -27 15 -7 0 -16 7 -19 15 -8 21 -21 19 -34 -6z"/>
<path d="M4270 3200 c-13 -24 6 -75 38 -103 28 -25 102 -35 102 -15 0 25 -30
91 -53 116 -26 28 -72 29 -87 2z"/>
<path d="M4570 3190 c-15 -16 -33 -43 -40 -60 -12 -28 -11 -34 7 -52 18 -17
24 -18 44 -8 41 21 78 61 84 92 14 61 -47 79 -95 28z"/>
<path d="M3620 3060 c0 -5 5 -10 10 -10 6 0 10 5 10 10 0 6 -4 10 -10 10 -5 0
-10 -4 -10 -10z"/>
<path d="M4083 5883 c9 -2 25 -2 35 0 9 3 1 5 -18 5 -19 0 -27 -2 -17 -5z"/>
<path d="M4843 5883 c9 -2 23 -2 30 0 6 3 -1 5 -18 5 -16 0 -22 -2 -12 -5z"/>
<path d="M3993 5873 c9 -2 25 -2 35 0 9 3 1 5 -18 5 -19 0 -27 -2 -17 -5z"/>
<path d="M4908 5873 c12 -2 30 -2 40 0 9 3 -1 5 -23 4 -22 0 -30 -2 -17 -4z"/>
<path d="M3850 5860 c-34 -7 -34 -7 -5 -8 17 0 53 3 80 8 l50 7 -45 0 c-25 0
-61 -3 -80 -7z"/>
<path d="M4988 5863 c12 -2 30 -2 40 0 9 3 -1 5 -23 4 -22 0 -30 -2 -17 -4z"/>
<path d="M5063 5853 c9 -2 23 -2 30 0 6 3 -1 5 -18 5 -16 0 -22 -2 -12 -5z"/>
<path d="M3685 5790 c-3 -6 1 -7 9 -4 18 7 21 14 7 14 -6 0 -13 -4 -16 -10z"/>
<path d="M3586 5655 c-3 -9 -6 -22 -5 -28 0 -7 5 -1 10 12 5 13 8 26 5 28 -2
2 -6 -3 -10 -12z"/>
<path d="M5340 5665 c0 -5 5 -17 10 -25 5 -8 10 -10 10 -5 0 6 -5 17 -10 25
-5 8 -10 11 -10 5z"/>
<path d="M5400 5516 c0 -2 8 -10 18 -17 15 -13 16 -12 3 4 -13 16 -21 21 -21
13z"/>
<path d="M3222 5463 c1 -37 1 -37 5 -6 3 23 10 33 26 36 18 4 17 5 -5 6 -26 1
-28 -2 -26 -36z"/>
<path d="M3368 5493 c23 -2 61 -2 85 0 23 2 4 4 -43 4 -47 0 -66 -2 -42 -4z"/>
<path d="M3508 5493 c7 -3 16 -2 19 1 4 3 -2 6 -13 5 -11 0 -14 -3 -6 -6z"/>
<path d="M5513 5493 c20 -2 54 -2 75 0 20 2 3 4 -38 4 -41 0 -58 -2 -37 -4z"/>
<path d="M2695 4415 c0 -588 1 -828 2 -532 2 296 2 778 0 1070 -1 293 -2 51
-2 -538z"/>
<path d="M3206 5345 c-3 -8 -1 -15 4 -15 6 0 10 7 10 15 0 8 -2 15 -4 15 -2 0
-6 -7 -10 -15z"/>
<path d="M2968 5333 c28 -2 76 -2 105 0 28 2 5 3 -53 3 -58 0 -81 -1 -52 -3z"/>
<path d="M6095 2585 c-89 -30 -481 -166 -640 -223 -93 -34 -237 -84 -320 -112
-82 -28 -172 -60 -200 -70 -236 -87 -420 -150 -436 -150 -10 0 -19 -5 -19 -11
0 -15 49 -4 140 31 41 16 188 67 325 115 305 106 546 191 600 212 50 19 375
134 510 180 55 19 102 36 104 39 8 8 -24 2 -64 -11z"/>
<path d="M3700 2281 c25 -15 452 -162 457 -158 2 2 -29 16 -69 30 -40 14 -144
51 -231 81 -151 54 -189 65 -157 47z"/>
<path d="M4235 2091 c22 -10 51 -21 65 -25 14 -3 7 2 -15 13 -22 10 -51 21
-65 25 -14 3 -7 -2 15 -13z"/>
<path d="M4345 2050 c27 -12 43 -12 25 0 -8 5 -22 9 -30 9 -10 0 -8 -3 5 -9z"/>
<path d="M4438 2023 c7 -3 16 -2 19 1 4 3 -2 6 -13 5 -11 0 -14 -3 -6 -6z"/>
<path d="M7256 7432 c-8 -23 -105 -120 -163 -162 -53 -39 -129 -139 -145 -192
-15 -52 4 -107 69 -189 54 -69 160 -139 210 -139 50 0 103 28 167 89 34 31 86
78 116 103 30 26 72 62 92 81 l38 33 -38 37 -37 37 -40 -36 c-22 -20 -56 -48
-75 -62 -19 -15 -61 -51 -92 -81 -32 -30 -73 -65 -92 -79 -34 -24 -35 -24 -79
-7 -87 33 -151 118 -139 185 3 15 63 82 156 174 138 136 149 149 131 160 -11
6 -32 23 -46 39 -25 25 -28 26 -33 9z"/>
<path d="M1765 7418 c-16 -6 -52 -28 -80 -49 -55 -41 -225 -221 -225 -238 0
-5 33 -37 73 -70 39 -32 128 -116 197 -185 69 -69 130 -126 136 -126 6 0 17
13 23 28 7 16 51 67 99 114 104 102 147 176 147 253 0 167 -216 327 -370 273z
m98 -99 c46 -13 101 -60 139 -118 30 -48 35 -88 17 -124 -16 -30 -140 -197
-146 -197 -9 0 -283 279 -283 287 0 9 121 120 159 145 30 20 60 22 114 7z"/>
<path d="M1341 7012 c-12 -17 -31 -52 -42 -77 -17 -39 -19 -52 -10 -103 12
-63 19 -292 10 -292 -3 0 -14 10 -25 21 -10 12 -42 37 -71 55 -28 19 -54 38
-58 44 -13 21 -50 9 -72 -22 l-23 -32 28 -29 c15 -16 56 -49 92 -73 73 -49
164 -112 258 -179 35 -25 69 -45 76 -45 13 0 72 68 65 74 -2 2 -36 26 -75 55
-80 57 -84 63 -84 127 0 37 3 44 23 49 12 2 29 4 37 3 12 -2 181 12 215 17 6
1 25 3 43 3 25 2 35 8 44 30 7 15 20 39 31 54 21 33 14 53 -17 43 -11 -4 -61
-10 -111 -15 -49 -4 -129 -13 -177 -21 -48 -7 -91 -9 -95 -5 -4 4 -11 74 -14
154 -3 81 -11 158 -16 171 l-10 24 -22 -31z"/>
<path d="M7649 6817 c-19 -12 -45 -44 -58 -71 -28 -55 -31 -35 38 -252 22 -72
41 -134 41 -137 0 -9 -56 -37 -74 -37 -26 0 -77 52 -105 109 -34 67 -39 139
-11 173 16 20 16 25 3 57 -27 65 -37 69 -77 26 -67 -70 -70 -145 -11 -267 44
-92 110 -161 173 -182 71 -25 103 -21 141 16 75 73 77 123 12 288 -46 115 -52
164 -21 180 26 14 44 4 102 -58 57 -61 70 -108 43 -159 -18 -33 -18 -34 3 -71
11 -20 25 -38 31 -40 13 -4 60 46 72 77 14 37 0 134 -27 177 -12 22 -32 56
-44 77 -22 39 -67 72 -138 100 -53 21 -52 21 -93 -6z"/>
<path d="M975 6364 c-16 -9 -42 -32 -57 -52 -31 -41 -168 -315 -168 -334 0 -7
35 -28 78 -47 42 -19 136 -62 207 -97 201 -97 205 -98 220 -83 7 8 20 30 28
51 l15 36 -73 32 c-40 18 -83 39 -94 47 -20 13 -20 16 -5 51 92 212 96 236 61
327 -27 72 -136 107 -212 69z m91 -106 c16 -12 32 -27 36 -33 12 -17 9 -69 -5
-90 -8 -11 -26 -53 -42 -93 -26 -70 -29 -73 -54 -67 -50 12 -111 44 -118 61
-7 19 74 182 110 222 26 28 37 28 73 0z"/>
<path d="M7575 6142 c-7 -7 38 -102 49 -104 6 -1 47 -2 91 -2 l79 -1 44 -89
c65 -132 65 -143 2 -210 -47 -50 -52 -59 -46 -89 3 -18 12 -42 19 -52 13 -17
15 -17 41 0 15 10 44 39 64 65 21 26 84 105 142 175 58 70 115 141 127 159 12
17 26 36 31 42 6 6 2 27 -8 55 -17 44 -18 44 -76 52 -55 7 -552 6 -559 -1z
m500 -113 c6 -9 -60 -104 -88 -127 -22 -18 -35 -8 -56 42 -36 84 -36 84 6 88
82 7 133 6 138 -3z"/>
<path d="M8268 5774 c-33 -18 -34 -19 -8 -79 11 -26 20 -57 20 -69 0 -12 5
-27 12 -34 8 -8 8 -15 3 -21 -10 -9 -220 -75 -368 -115 -43 -12 -78 -25 -78
-29 1 -4 6 -27 13 -52 14 -50 18 -52 93 -31 268 76 343 96 360 96 22 0 30 -16
65 -122 12 -38 26 -68 31 -68 6 0 23 7 40 16 20 10 28 20 25 32 -3 9 -21 71
-40 138 -19 66 -40 134 -46 150 -6 16 -18 58 -26 94 -16 70 -37 110 -57 110
-6 -1 -24 -8 -39 -16z"/>
<path d="M755 5763 c-77 -39 -104 -83 -150 -238 -15 -49 -31 -101 -36 -115 -4
-14 -11 -41 -15 -61 l-6 -37 64 -15 c34 -8 113 -29 173 -47 325 -93 289 -88
315 -39 11 23 19 47 17 54 -3 6 -29 17 -58 23 -30 7 -72 19 -94 26 -49 17 -54
41 -27 129 44 140 46 161 21 214 -12 26 -23 52 -23 58 -1 15 -76 52 -116 58
-22 3 -47 -1 -65 -10z m90 -118 c32 -33 34 -96 3 -200 -21 -73 -23 -75 -53
-75 -47 0 -137 29 -133 43 71 243 115 299 183 232z"/>
<path d="M565 4975 c-83 -20 -119 -40 -176 -96 -50 -50 -56 -60 -73 -133 -31
-135 -12 -219 70 -299 84 -83 119 -99 223 -98 119 0 171 22 249 106 53 57 59
67 72 133 7 39 10 92 7 119 -8 71 -61 169 -106 197 -20 13 -49 31 -66 42 -16
10 -34 17 -39 16 -5 -2 -26 4 -48 13 -44 17 -45 17 -113 0z"/>
<path d="M8211 4914 c-80 -42 -107 -70 -147 -158 -23 -52 -26 -67 -22 -140 5
-92 22 -135 78 -199 69 -79 178 -117 281 -98 83 14 135 41 192 99 39 39 51 60
67 120 26 94 25 130 -5 196 -14 30 -25 60 -25 65 0 6 -13 25 -30 43 -16 17
-30 34 -30 37 0 3 -24 19 -53 36 -44 25 -65 30 -142 33 -88 4 -92 3 -164 -34z"/>
<path d="M857 4114 c-3 -3 -45 -10 -94 -14 -131 -13 -244 -29 -280 -41 -36
-11 -36 -21 -9 -125 31 -117 61 -136 211 -131 123 4 195 25 255 76 35 29 35
30 34 107 0 44 -3 91 -7 107 -7 25 -11 27 -56 27 -26 0 -50 -3 -54 -6z m33
-138 l0 -64 -50 -21 c-62 -27 -231 -41 -254 -22 -19 16 -43 118 -30 131 8 8
221 35 307 39 27 1 27 0 27 -63z"/>
<path d="M7996 4065 c-3 -9 -6 -22 -6 -29 0 -15 98 -36 167 -36 28 0 67 -7 87
-15 20 -9 41 -13 45 -11 5 3 50 -1 101 -10 84 -13 95 -13 109 1 41 41 -46 72
-265 95 -224 23 -231 23 -238 5z"/>
<path d="M8038 3934 c-58 -29 -74 -53 -83 -120 -6 -49 -5 -53 34 -98 50 -58
53 -78 11 -70 -36 8 -54 -5 -82 -60 -16 -32 -58 -161 -58 -180 0 -3 17 -8 38
-11 34 -6 172 -47 217 -65 27 -11 197 -50 217 -50 21 0 34 50 16 62 -12 7 -35
14 -129 39 -39 10 -64 32 -55 48 13 21 89 51 129 51 69 0 117 18 128 48 16 42
-7 52 -84 36 -109 -23 -167 -12 -167 33 0 22 2 23 90 23 126 0 161 18 201 105
l30 65 -28 57 c-28 57 -29 58 -91 75 -34 9 -81 18 -104 20 -40 2 -43 1 -49
-27 -4 -17 -13 -49 -19 -73 -6 -24 -8 -47 -5 -53 4 -5 23 -9 45 -9 41 0 50 11
50 61 0 18 5 29 14 29 25 0 81 -45 91 -74 9 -25 6 -31 -32 -67 -41 -38 -44
-39 -115 -39 -120 0 -207 56 -208 131 0 30 33 69 60 69 33 0 50 12 50 35 0 42
-43 45 -112 9z m47 -374 c23 -45 17 -123 -11 -134 -18 -7 -101 22 -107 38 -3
7 3 32 14 56 33 74 78 91 104 40z"/>
<path d="M979 3805 c-4 -3 -278 -50 -416 -71 -36 -5 -57 -33 -46 -59 6 -18 17
-18 143 5 121 22 255 37 264 30 10 -10 -19 -26 -64 -34 -123 -23 -279 -61
-302 -73 -32 -15 -33 -22 -15 -47 12 -17 16 -17 77 -1 118 31 194 45 202 37 5
-5 -19 -31 -53 -58 -100 -79 -173 -135 -189 -144 -13 -7 -12 -11 4 -28 11 -13
15 -28 12 -40 -4 -10 1 -33 10 -51 15 -30 20 -32 58 -30 86 4 101 0 119 -30
29 -49 22 -72 -34 -113 -27 -21 -54 -38 -60 -38 -5 0 -9 -4 -9 -10 0 -5 4 -10
9 -10 5 0 7 -8 4 -19 -6 -22 16 -39 27 -21 4 7 24 22 43 34 20 11 113 73 207
136 256 173 249 179 -204 155 -132 -7 -138 -7 -134 11 3 16 16 20 73 26 78 7
278 49 340 71 41 14 54 38 36 66 -7 11 -19 11 -72 -4 -138 -37 -175 -45 -214
-45 l-40 0 55 36 c30 20 74 53 96 73 23 20 63 49 88 65 39 24 47 33 44 55 -3
24 -7 26 -40 23 -43 -3 -50 9 -14 26 13 6 27 20 31 32 9 27 -19 63 -36 45z m1
-548 c0 -18 -88 -59 -110 -52 -33 11 -32 35 3 50 42 18 107 19 107 2z"/>
<path d="M7842 3353 c-5 -10 -22 -56 -37 -103 -16 -47 -39 -109 -52 -138 -12
-29 -23 -54 -23 -56 0 -2 17 -6 38 -10 21 -3 58 -16 83 -29 24 -13 61 -29 82
-36 20 -7 37 -16 37 -21 0 -14 -69 -30 -126 -30 -28 0 -79 -3 -113 -6 l-62 -7
-56 -101 c-31 -56 -67 -115 -80 -133 l-23 -32 32 -24 c18 -13 83 -50 143 -82
61 -32 145 -78 189 -103 47 -26 82 -40 87 -35 14 14 129 223 129 234 0 5 4 9
8 9 7 0 32 56 32 72 0 5 -132 62 -227 99 -13 5 -23 13 -23 19 0 11 68 14 220
11 l95 -2 18 32 c10 17 16 33 15 34 -12 12 -234 112 -278 125 -62 20 -82 43
-28 34 18 -3 94 -26 169 -50 75 -24 140 -44 146 -44 9 0 73 166 88 231 6 23 2
27 -35 38 -23 7 -43 11 -44 9 -2 -2 -13 -45 -26 -95 -13 -51 -29 -93 -34 -93
-31 0 -87 23 -100 41 -12 18 -11 28 5 82 22 74 24 97 5 97 -7 0 -28 3 -45 6
-25 5 -30 4 -26 -8 6 -16 -21 -115 -35 -131 -12 -13 -78 -11 -95 3 -21 18 -18
52 10 116 32 72 31 80 -6 88 -44 9 -47 8 -57 -11z m-63 -542 c20 -15 23 -25
19 -52 -7 -44 -57 -149 -71 -149 -5 0 -30 10 -54 22 -52 26 -52 36 5 134 40
70 58 78 101 45z m105 -45 c19 -13 71 -38 115 -55 73 -30 102 -53 82 -65 -4
-3 -17 1 -27 9 -10 8 -24 15 -31 15 -6 0 -30 -37 -53 -82 -23 -46 -45 -87 -49
-91 -9 -9 -100 49 -108 69 -5 13 50 118 68 129 16 11 10 30 -13 40 -13 6 -24
20 -26 33 -4 28 -1 28 42 -2z"/>
<path d="M1076 3139 c-88 -21 -129 -78 -114 -158 9 -48 3 -97 -14 -118 -17
-21 -85 -16 -108 7 -36 36 -17 100 36 120 29 12 30 20 4 48 -17 18 -24 20 -43
10 -12 -6 -29 -14 -37 -18 -22 -10 -49 -69 -50 -108 0 -39 28 -98 64 -131 21
-20 32 -23 67 -18 54 7 127 45 153 80 17 22 22 48 26 119 5 90 5 92 33 99 21
6 32 3 47 -14 26 -27 25 -59 -2 -106 -19 -34 -21 -42 -10 -66 l13 -28 34 39
c19 22 44 58 57 82 l23 42 -25 47 c-44 84 -63 93 -154 72z"/>
<path d="M1288 2845 c-22 -29 -22 -47 -3 -86 9 -16 13 -34 10 -40 -4 -5 -46
-30 -93 -54 -176 -90 -266 -141 -269 -151 -2 -5 3 -18 11 -29 13 -18 15 -18
65 4 28 12 75 36 104 53 101 60 177 97 210 103 32 6 34 5 47 -36 17 -51 25
-44 -176 -164 -82 -49 -151 -90 -153 -92 -8 -6 134 -243 146 -243 2 0 11 7 19
15 8 8 23 19 32 24 12 7 14 14 7 24 -5 8 -33 48 -61 89 l-50 75 59 32 c72 37
77 34 118 -56 16 -35 33 -63 38 -63 8 0 75 28 90 37 2 1 -22 34 -53 72 -31 39
-56 77 -56 85 0 16 67 56 93 56 20 0 97 -121 97 -151 0 -21 -22 -42 -122 -115
-175 -129 -190 -142 -186 -173 4 -37 25 -32 94 22 113 89 179 135 186 131 7
-4 -69 -149 -124 -236 -29 -46 -29 -47 -12 -80 25 -49 63 -98 78 -98 7 0 35
16 62 35 27 19 54 35 60 35 6 0 30 -18 53 -41 l43 -40 -28 -42 c-15 -23 -37
-53 -48 -65 l-21 -24 29 -25 c24 -20 31 -22 41 -11 7 7 65 101 129 208 85 142
116 203 116 227 0 26 -4 33 -20 33 -28 0 -280 -131 -364 -190 -66 -46 -96 -55
-79 -25 9 14 327 268 373 296 23 14 -17 42 -49 34 -24 -6 -126 -80 -150 -109
-15 -18 -79 -51 -86 -44 -2 2 29 68 70 147 84 164 84 133 -5 266 -44 65 -115
181 -162 265 -66 117 -80 140 -86 140 -4 0 -15 -11 -24 -25z m452 -903 c0 -25
-54 -75 -77 -70 -29 5 -21 40 16 65 41 28 61 29 61 5z"/>
<path d="M7430 2511 c-5 -11 -10 -24 -10 -30 0 -6 48 -43 108 -82 59 -39 110
-76 114 -83 13 -20 -6 -25 -52 -14 -66 15 -149 35 -196 47 -49 13 -63 9 -86
-24 -18 -23 -17 -24 20 -53 20 -16 57 -42 82 -58 84 -53 270 -195 270 -204 0
-15 0 -15 -127 49 -145 73 -256 124 -306 142 -36 13 -40 12 -53 -6 -22 -29
-18 -43 35 -109 27 -33 92 -125 144 -203 89 -131 97 -140 111 -124 9 10 16 25
16 35 0 24 -29 77 -53 97 l-21 17 29 42 c16 23 36 45 43 48 8 3 39 -7 68 -21
30 -15 62 -27 72 -27 22 1 53 26 82 68 l22 33 -26 28 c-15 16 -65 50 -111 77
-76 44 -103 69 -91 81 8 8 159 -16 231 -36 l70 -20 18 21 c32 38 22 53 -80
122 -54 35 -144 96 -201 135 -56 39 -105 71 -107 71 -2 0 -9 -9 -15 -19z m-44
-453 c38 -26 47 -50 29 -74 -15 -21 -28 -14 -65 38 -43 59 -24 77 36 36z"/>
<path d="M7035 2002 c-32 -20 -125 -118 -125 -133 0 -4 21 -28 48 -53 26 -24
77 -73 114 -109 36 -35 87 -81 113 -102 25 -21 53 -51 61 -67 l15 -29 47 52
c76 85 92 110 92 148 0 120 -188 311 -305 311 -16 0 -44 -8 -60 -18z m161
-100 c109 -79 135 -130 107 -213 -29 -86 -29 -86 -222 98 -84 80 -86 92 -20
125 49 26 90 22 135 -10z"/>
<path d="M1913 1875 c-73 -31 -202 -181 -217 -252 -18 -79 44 -174 120 -187
34 -6 42 -12 52 -40 7 -18 24 -38 38 -45 24 -11 30 -8 70 29 24 22 50 40 57
40 16 0 97 -57 97 -68 0 -4 -13 -34 -30 -65 -16 -32 -30 -64 -30 -71 0 -12 43
-39 63 -41 5 0 25 41 46 90 21 50 64 151 95 225 31 74 56 143 54 155 -2 11
-14 24 -28 29 -22 7 -35 1 -92 -40 -158 -117 -260 -189 -278 -196 -32 -12 -10
21 50 75 27 25 50 49 50 55 0 5 -14 20 -31 33 -17 13 -35 34 -40 46 -11 30
-31 29 -66 -2 l-28 -25 34 -28 c38 -32 39 -60 2 -78 -17 -9 -32 -9 -50 -3 -34
13 -91 69 -91 88 0 48 120 195 168 208 33 8 109 -2 127 -17 22 -18 19 -83 -5
-105 -26 -23 -25 -33 3 -37 55 -9 87 33 87 114 0 84 -52 128 -147 128 -26 -1
-63 -7 -80 -15z m307 -335 c0 -17 -47 -94 -64 -105 -12 -7 -19 -6 -26 5 -18
29 -10 49 33 79 45 32 57 37 57 21z"/>
<path d="M6767 1772 c-10 -10 -17 -26 -17 -35 0 -10 44 -63 98 -120 53 -56
126 -137 161 -179 67 -80 77 -84 110 -44 10 12 3 24 -41 68 -85 85 -262 286
-272 308 -11 25 -18 25 -39 2z"/>
<path d="M6638 1661 c-59 -38 -71 -61 -66 -126 3 -40 12 -62 37 -94 38 -47 57
-50 195 -29 77 12 79 11 97 -11 24 -30 24 -52 -2 -85 -24 -31 -51 -33 -111 -8
-81 35 -93 -2 -20 -61 69 -55 84 -56 148 -12 66 46 78 65 71 121 -6 53 -52
114 -103 139 -38 18 -66 17 -166 -4 -27 -6 -54 -8 -62 -5 -21 8 -25 71 -6 89
19 17 96 20 105 5 3 -5 15 -10 26 -10 46 0 7 66 -65 107 -28 16 -26 17 -78
-16z"/>
<path d="M2483 1508 c-22 -24 -214 -321 -240 -371 -36 -70 24 -76 74 -7 61 85
85 110 105 110 15 0 18 -4 13 -17 -4 -10 -11 -54 -16 -98 -4 -44 -10 -91 -14
-105 -4 -19 -1 -28 13 -37 54 -32 323 -173 332 -173 3 0 4 21 2 48 l-4 47 -69
29 c-38 16 -72 33 -75 38 -8 13 13 78 36 107 l17 24 77 -37 c88 -42 96 -43 96
-17 0 11 3 26 6 34 4 11 -12 25 -55 48 -65 34 -79 56 -63 100 20 51 34 53 104
14 73 -39 92 -42 116 -18 30 30 27 -11 -7 -71 -16 -30 -53 -110 -81 -178 -29
-68 -58 -132 -65 -144 -15 -24 -10 -36 24 -54 25 -13 40 -2 41 30 1 22 73 153
87 158 7 2 22 -11 33 -30 17 -27 20 -50 20 -135 0 -93 2 -103 21 -113 40 -22
46 -8 46 94 0 107 11 135 61 155 45 19 84 97 80 163 l-3 52 -80 41 c-44 22
-100 49 -125 59 -25 10 -103 50 -173 88 l-128 70 -47 -12 c-26 -7 -65 -21 -86
-31 -46 -22 -110 -36 -105 -23 2 5 26 42 52 82 39 59 46 76 37 88 -17 20 -33
18 -57 -8z m217 -173 c0 -2 -23 -44 -52 -92 -29 -48 -71 -130 -94 -181 -23
-51 -46 -94 -50 -95 -14 -3 -20 53 -13 113 20 156 28 194 46 204 49 29 163 65
163 51z m424 -261 c-2 -37 -31 -74 -59 -74 -28 1 -105 37 -105 50 0 15 29 71
48 92 14 17 18 16 66 -10 45 -24 51 -31 50 -58z"/>
<path d="M6393 1490 c-13 -5 -23 -13 -23 -18 0 -5 32 -103 70 -217 39 -115 67
-212 62 -217 -4 -4 -36 16 -70 44 l-62 53 6 51 c7 62 -7 95 -67 148 -36 33
-46 38 -78 33 -38 -5 -156 -58 -179 -81 -10 -10 -7 -24 19 -77 17 -35 42 -82
55 -104 30 -52 124 -244 124 -255 0 -18 21 -20 50 -5 16 8 30 18 30 20 0 3
-20 46 -45 95 -25 49 -42 96 -39 105 4 9 19 15 41 15 35 0 75 -27 154 -106 27
-26 27 -26 70 -10 24 9 55 25 69 36 24 18 24 19 8 53 -9 19 -20 50 -23 68 -6
31 -3 37 36 67 52 39 64 40 86 5 42 -66 68 -78 106 -49 25 19 21 32 -15 57
-38 27 -140 116 -241 212 -99 93 -101 94 -144 77z m143 -169 c30 -46 29 -86
-1 -86 -20 0 -31 22 -49 98 -10 41 19 35 50 -12z m-252 -66 c20 -19 33 -40 31
-47 -6 -16 -90 -68 -109 -68 -13 0 -66 78 -66 97 0 12 71 52 92 53 9 0 32 -16
52 -35z"/>
<path d="M5908 1226 c-81 -29 -118 -77 -118 -152 0 -66 -43 -28 -52 46 -3 28
-26 36 -50 18 -15 -12 -16 -19 -4 -68 18 -74 61 -205 104 -317 37 -95 49 -107
85 -80 16 11 15 18 -18 97 -49 117 -46 157 5 84 70 -99 103 -124 161 -124 47
0 118 38 140 74 35 57 35 91 0 161 -17 36 -31 71 -31 80 0 21 -9 19 -84 -15
-69 -32 -79 -48 -52 -85 12 -16 17 -17 44 -6 41 17 57 10 71 -29 10 -29 8 -34
-18 -61 -37 -37 -84 -39 -130 -5 -44 33 -53 47 -86 138 -25 70 -26 81 -15 110
7 18 20 39 28 46 25 19 86 15 107 -8 21 -23 44 -25 68 -7 16 11 13 16 -30 59
-57 55 -76 61 -125 44z m-84 -293 c4 -14 3 -23 -3 -23 -13 0 -17 8 -26 50 -6
32 -6 34 8 15 8 -11 17 -30 21 -42z"/>
<path d="M5578 1109 c-27 -10 -28 -13 -28 -85 0 -42 5 -106 11 -144 12 -71 6
-124 -12 -118 -11 4 -120 199 -140 251 -11 28 -24 32 -78 21 -26 -5 -31 -11
-31 -35 0 -39 -15 -44 -40 -12 -21 26 -22 27 -77 15 -91 -19 -125 -73 -104
-167 16 -71 48 -99 138 -120 79 -19 90 -27 94 -65 4 -50 0 -57 -40 -64 -22 -3
-46 -8 -54 -12 -10 -3 -21 9 -35 39 -17 36 -27 45 -52 49 -31 5 -32 4 -25 -30
4 -20 23 -59 43 -88 33 -48 41 -53 74 -54 70 0 134 19 146 45 19 42 24 92 12
115 -7 14 -8 26 -3 31 15 15 30 -10 44 -66 20 -86 32 -97 69 -67 l22 18 -25
75 c-30 90 -44 174 -25 145 46 -68 59 -91 79 -146 25 -68 33 -76 72 -61 27 10
27 11 27 116 0 60 4 105 10 105 9 0 13 -13 43 -130 11 -45 17 -54 33 -52 32 6
44 22 38 51 -4 14 -24 82 -45 151 -22 69 -47 148 -55 176 -9 28 -17 66 -18 85
-2 38 -20 46 -68 28z m-338 -201 c11 -12 20 -25 20 -29 0 -4 21 -17 46 -29 36
-18 50 -32 65 -67 10 -25 19 -47 19 -49 0 -12 -26 0 -66 30 -34 26 -58 36
-104 41 -64 7 -82 21 -82 60 0 58 63 84 102 43z"/>
<path d="M3330 1084 c-6 -14 -10 -31 -10 -39 0 -7 -18 -66 -39 -131 -65 -195
-77 -218 -107 -194 -11 10 -13 25 -8 61 6 47 5 49 -17 49 -44 0 -53 -15 -57
-89 -4 -60 -2 -71 12 -71 9 0 16 -4 16 -10 0 -5 18 -15 40 -21 36 -11 44 -10
68 7 35 26 74 107 127 264 61 177 61 178 30 190 -38 15 -44 13 -55 -16z"/>
<path d="M3520 1042 c0 -9 -21 -50 -47 -89 -83 -125 -139 -216 -173 -277 -32
-56 -32 -60 -15 -72 11 -8 22 -14 26 -14 10 0 50 50 71 89 19 35 36 38 99 19
l41 -13 -5 -77 -5 -77 39 -6 40 -7 -7 -44 c-6 -42 -5 -44 19 -44 32 0 75 64
84 125 7 55 -12 68 -53 36 -14 -11 -30 -18 -35 -15 -5 3 -9 106 -9 229 l0 224
-30 16 c-37 19 -40 19 -40 -3z m-2 -220 c2 -40 0 -52 -12 -52 -48 0 -58 27
-28 79 24 42 36 34 40 -27z"/>
<path d="M3880 936 c0 -45 1 -46 33 -46 17 0 38 -4 45 -9 18 -11 17 -100 -2
-231 -9 -58 -16 -126 -16 -152 0 -44 2 -48 24 -48 14 0 28 5 31 10 7 11 32
198 42 312 3 37 11 72 17 76 6 5 34 6 61 3 l50 -6 3 -85 c2 -47 -2 -136 -8
-199 -14 -126 -12 -131 47 -131 l32 0 3 103 3 102 29 0 c26 0 33 -7 62 -65 18
-36 39 -84 46 -107 l12 -43 53 -1 c29 -1 58 -2 65 -3 7 -1 20 32 31 74 10 41
24 78 30 82 16 10 79 10 95 -1 8 -5 22 -39 33 -76 10 -37 20 -70 22 -72 6 -5
138 15 145 22 3 3 1 32 -6 63 -7 32 -12 75 -12 96 0 21 -5 56 -12 77 -24 83
14 58 79 -51 104 -174 96 -165 136 -168 34 -3 37 -1 37 22 0 13 -7 56 -15 94
-8 39 -14 83 -14 99 0 15 -7 64 -16 108 -10 44 -19 105 -21 135 -2 47 -5 55
-21 52 -10 -2 -25 -12 -35 -23 -14 -17 -15 -25 -3 -77 7 -31 15 -90 18 -129 9
-110 -12 -99 -91 47 -13 25 -40 69 -59 98 -28 43 -39 52 -64 52 -28 0 -29 -2
-29 -46 0 -25 4 -64 9 -87 30 -133 47 -317 30 -317 -4 0 -10 15 -14 33 -4 17
-22 76 -41 130 -19 55 -34 106 -34 115 0 10 -10 49 -22 89 -21 64 -26 72 -56
81 -30 10 -34 8 -43 -15 -8 -21 -44 -180 -87 -383 -17 -77 -60 -33 -69 71 -5
48 -2 61 18 89 20 26 24 43 23 96 0 53 -4 68 -25 90 -40 43 -58 48 -229 56
-152 7 -240 17 -297 34 -22 6 -23 3 -23 -40z m495 -151 l0 -60 -65 0 -65 0 -3
49 c-5 74 -2 77 70 74 l63 -3 0 -60z m256 -55 c4 -14 7 -40 8 -57 1 -27 -3
-34 -25 -39 -37 -9 -49 7 -35 47 6 17 11 43 11 56 0 33 32 27 41 -7z"/>
<path d="M8992 5035 c0 -16 2 -22 5 -12 2 9 2 23 0 30 -3 6 -5 -1 -5 -18z"/>
<path d="M4198 3 c7 -3 16 -2 19 1 4 3 -2 6 -13 5 -11 0 -14 -3 -6 -6z"/>
<path d="M4778 3 c6 -2 18 -2 25 0 6 3 1 5 -13 5 -14 0 -19 -2 -12 -5z"/>
<path d="M4848 3 c7 -3 16 -2 19 1 4 3 -2 6 -13 5 -11 0 -14 -3 -6 -6z"/>
</g>
</svg>
